<svg aria-hidden="true" style="position: absolute; width: 0; height: 0; overflow: hidden;" version="1.1" xmlns="http://www.w3.org/2000/svg" xmlns:xlink="http://www.w3.org/1999/xlink">
<defs>
<symbol id="icon-github" viewBox="0 0 32 32">
<path d="M16 2.667c-1.751 0-3.485 0.345-5.102 1.015s-3.088 1.652-4.326 2.89c-2.5 2.501-3.905 5.892-3.905 9.428 0 5.893 3.827 10.893 9.12 12.667 0.667 0.107 0.88-0.307 0.88-0.667v-2.253c-3.693 0.8-4.48-1.787-4.48-1.787-0.613-1.547-1.48-1.96-1.48-1.96-1.213-0.827 0.093-0.8 0.093-0.8 1.333 0.093 2.040 1.373 2.040 1.373 1.16 2.027 3.12 1.427 3.88 1.107 0.12-0.867 0.467-1.453 0.84-1.787-2.96-0.333-6.067-1.48-6.067-6.56 0-1.48 0.507-2.667 1.373-3.613-0.133-0.333-0.6-1.72 0.133-3.52 0 0 1.12-0.36 3.667 1.36 1.053-0.293 2.2-0.44 3.333-0.44s2.28 0.147 3.333 0.44c2.547-1.72 3.667-1.36 3.667-1.36 0.733 1.8 0.267 3.187 0.133 3.52 0.867 0.947 1.373 2.133 1.373 3.613 0 5.093-3.12 6.213-6.093 6.547 0.48 0.413 0.92 1.227 0.92 2.467v3.653c0 0.36 0.213 0.787 0.893 0.667 5.293-1.787 9.107-6.773 9.107-12.667 0-1.751-0.345-3.485-1.015-5.102s-1.652-3.088-2.89-4.326-2.708-2.22-4.326-2.89c-1.618-0.67-3.351-1.015-5.102-1.015z"></path>
</symbol>
<symbol id="icon-linkedin" viewBox="0 0 32 32">
<path d="M25.333 4c0.707 0 1.385 0.281 1.886 0.781s0.781 1.178 0.781 1.886v18.667c0 0.707-0.281 1.385-0.781 1.886s-1.178 0.781-1.886 0.781h-18.667c-0.707 0-1.386-0.281-1.886-0.781s-0.781-1.178-0.781-1.886v-18.667c0-0.707 0.281-1.386 0.781-1.886s1.178-0.781 1.886-0.781h18.667zM24.667 24.667v-7.067c0-1.153-0.458-2.258-1.273-3.074s-1.921-1.273-3.074-1.273c-1.133 0-2.453 0.693-3.093 1.733v-1.48h-3.72v11.16h3.72v-6.573c0-1.027 0.827-1.867 1.853-1.867 0.495 0 0.97 0.197 1.32 0.547s0.547 0.825 0.547 1.32v6.573h3.72zM9.173 11.413c0.594 0 1.164-0.236 1.584-0.656s0.656-0.99 0.656-1.584c0-1.24-1-2.253-2.24-2.253-0.598 0-1.171 0.237-1.593 0.66s-0.66 0.996-0.66 1.593c0 1.24 1.013 2.24 2.253 2.24zM11.027 24.667v-11.16h-3.693v11.16h3.693z"></path>
</symbol>
<symbol id="icon-menu" viewBox="0 0 32 32">
<path d="M5.333 17.333c0.736 0 1.333-0.597 1.333-1.333s-0.597-1.333-1.333-1.333c-0.736 0-1.333 0.597-1.333 1.333s0.597 1.333 1.333 1.333z"></path>
<path d="M26.747 14.667h-16.16c-0.692 0-1.253 0.561-1.253 1.253v0.16c0 0.692 0.561 1.253 1.253 1.253h16.16c0.692 0 1.253-0.561 1.253-1.253v-0.16c0-0.692-0.561-1.253-1.253-1.253z"></path>
<path d="M26.747 21.333h-21.493c-0.692 0-1.253 0.561-1.253 1.253v0.16c0 0.692 0.561 1.253 1.253 1.253h21.493c0.692 0 1.253-0.561 1.253-1.253v-0.16c0-0.692-0.561-1.253-1.253-1.253z"></path>
<path d="M26.747 8h-21.493c-0.692 0-1.253 0.561-1.253 1.253v0.16c0 0.692 0.561 1.253 1.253 1.253h21.493c0.692 0 1.253-0.561 1.253-1.253v-0.16c0-0.692-0.561-1.253-1.253-1.253z"></path>
</symbol>
<symbol id="icon-people-solo" viewBox="0 0 32 32">
<path d="M21.066 20.667c1.227-0.682 1.068-3.31-0.354-5.874-0.61-1.104-1.36-1.998-2.11-2.623-0.897 0.666-1.983 1.027-3.1 1.030-1.119-0.002-2.207-0.363-3.105-1.030-0.75 0.625-1.498 1.52-2.11 2.623-1.423 2.563-1.58 5.192-0.35 5.874 0.548 0.312 1.126 0.078 1.722-0.496-0.112 0.618-0.167 1.246-0.167 1.874 0 2.938 1.14 5.312 2.543 5.312 0.846 0 1.265-0.865 1.466-2.188 0.2 1.314 0.62 2.188 1.46 2.188 1.397 0 2.546-2.375 2.546-5.312 0-0.66-0.062-1.29-0.168-1.873 0.6 0.575 1.176 0.813 1.726 0.497l0.001-0.002zM15.5 12.2c0.567 0.008 1.131-0.096 1.657-0.307s1.006-0.525 1.41-0.924 0.725-0.873 0.944-1.396c0.219-0.523 0.332-1.085 0.331-1.653s-0.113-1.129-0.333-1.652-0.541-0.998-0.945-1.396c-0.404-0.398-0.884-0.712-1.411-0.923s-1.090-0.315-1.658-0.306c-1.123 0.018-2.195 0.476-2.983 1.277s-1.23 1.879-1.229 3.003c0 1.124 0.443 2.202 1.231 3.002s1.86 1.258 2.984 1.275z"></path>
</symbol>
<symbol id="icon-people-team" viewBox="0 0 32 32">
<path d="M21.066 20.667c1.227-0.682 1.068-3.31-0.354-5.874-0.61-1.104-1.36-1.998-2.11-2.623-0.897 0.666-1.983 1.027-3.1 1.030-1.119-0.002-2.207-0.363-3.105-1.030-0.75 0.625-1.498 1.52-2.11 2.623-1.423 2.563-1.58 5.192-0.35 5.874 0.548 0.312 1.126 0.078 1.722-0.496-0.112 0.618-0.167 1.246-0.167 1.874 0 2.938 1.14 5.312 2.543 5.312 0.846 0 1.265-0.865 1.466-2.188 0.2 1.314 0.62 2.188 1.46 2.188 1.397 0 2.546-2.375 2.546-5.312 0-0.66-0.062-1.29-0.168-1.873 0.6 0.575 1.176 0.813 1.726 0.497l0.001-0.002zM15.5 12.2c0.567 0.008 1.131-0.096 1.657-0.307s1.006-0.525 1.41-0.924c0.404-0.398 0.725-0.873 0.944-1.396s0.332-1.085 0.331-1.653c-0-0.567-0.113-1.129-0.333-1.652s-0.541-0.998-0.945-1.396c-0.404-0.398-0.884-0.712-1.411-0.923s-1.090-0.315-1.658-0.306c-1.123 0.018-2.195 0.476-2.983 1.277s-1.23 1.879-1.229 3.003c0 1.124 0.443 2.202 1.231 3.002s1.86 1.258 2.984 1.275zM24.094 14.914c0.914-0.027 1.781-0.409 2.418-1.064s0.993-1.534 0.993-2.448-0.356-1.792-0.993-2.448c-0.637-0.656-1.504-1.038-2.418-1.064-0.932 0-1.825 0.37-2.484 1.029s-1.029 1.553-1.029 2.485 0.37 1.825 1.029 2.484c0.659 0.659 1.553 1.029 2.485 1.029l-0.001-0.002zM28.374 17.044c-0.502-0.908-1.116-1.642-1.732-2.155-0.737 0.546-1.629 0.842-2.546 0.845-0.756 0-1.46-0.207-2.076-0.55 0.496 1.093 0.803 2.2 0.86 3.19 0.094 1.516-0.38 2.64-1.328 3.165-0.203 0.112-0.424 0.187-0.653 0.224-0.057 0.392-0.096 0.8-0.096 1.23 0 2.413 0.935 4.362 2.088 4.362 0.694 0 1.040-0.71 1.204-1.796 0.163 1.080 0.508 1.796 1.2 1.796 1.145 0 2.090-1.95 2.090-4.36 0-0.543-0.053-1.060-0.14-1.54 0.492 0.473 0.966 0.668 1.418 0.408 1.007-0.56 0.877-2.718-0.29-4.82l0.001 0.001zM6.906 14.914c0.695-0 1.373-0.207 1.951-0.593s1.027-0.935 1.293-1.577c0.265-0.642 0.335-1.348 0.199-2.029s-0.47-1.307-0.962-1.798c-0.491-0.491-1.117-0.825-1.798-0.961s-1.387-0.066-2.029 0.2c-0.642 0.266-1.19 0.716-1.576 1.294s-0.592 1.256-0.592 1.951c0 0.932 0.371 1.826 1.030 2.484s1.553 1.029 2.484 1.030v-0.002zM9.441 21.536c-1.592-0.885-1.738-3.524-0.456-6.354-0.634 0.36-1.349 0.55-2.078 0.553-0.956 0-1.832-0.32-2.55-0.846-0.615 0.512-1.228 1.246-1.732 2.153-1.167 2.104-1.295 4.262-0.287 4.82 0.45 0.258 0.925 0.065 1.414-0.406-0.090 0.508-0.135 1.022-0.135 1.538 0 2.412 0.935 4.36 2.088 4.36 0.694 0 1.040-0.71 1.204-1.795 0.165 1.080 0.51 1.796 1.2 1.796 1.147 0 2.090-1.95 2.090-4.36 0-0.433-0.040-0.842-0.097-1.234-0.231-0.037-0.455-0.113-0.66-0.226l-0.001 0.001z"></path>
</symbol>
<symbol id="icon-telegram" viewBox="0 0 32 32">
<path d="M16 2.667c-7.36 0-13.333 5.973-13.333 13.333s5.973 13.333 13.333 13.333c7.36 0 13.333-5.973 13.333-13.333s-5.973-13.333-13.333-13.333zM22.187 11.733c-0.2 2.107-1.067 7.227-1.507 9.587-0.187 1-0.56 1.333-0.907 1.373-0.773 0.067-1.36-0.507-2.107-1-1.173-0.773-1.84-1.253-2.973-2-1.32-0.867-0.467-1.347 0.293-2.12 0.2-0.2 3.613-3.307 3.68-3.587 0.009-0.042 0.008-0.086-0.004-0.128s-0.033-0.080-0.063-0.112c-0.080-0.067-0.187-0.040-0.28-0.027-0.12 0.027-1.987 1.267-5.627 3.72-0.533 0.36-1.013 0.547-1.44 0.533-0.48-0.013-1.387-0.267-2.067-0.493-0.84-0.267-1.493-0.413-1.44-0.88 0.027-0.24 0.36-0.48 0.987-0.733 3.893-1.693 6.48-2.813 7.773-3.347 3.707-1.547 4.467-1.813 4.973-1.813 0.107 0 0.36 0.027 0.52 0.16 0.133 0.107 0.173 0.253 0.187 0.36-0.013 0.080 0.013 0.32 0 0.507z"></path>
</symbol>
<symbol id="icon-x" viewBox="0 0 32 32">
<path stroke-linejoin="round" stroke-linecap="round" stroke-miterlimit="4" stroke-width="2.6667" d="M24 8l-16 16"></path>
<path stroke-linejoin="round" stroke-linecap="round" stroke-miterlimit="4" stroke-width="2.6667" d="M8 8l16 16"></path>
</symbol>
</defs>
</svg>
