<svg width="24" height="24" viewBox="0 0 24 24" fill="#1D1C1C" xmlns="http://www.w3.org/2000/svg">
<path d="M15.7995 15.5002C16.7198 14.9887 16.6005 13.0177 15.534 11.0947C15.0765 10.2667 14.514 9.5962 13.9515 9.12745C13.2789 9.62664 12.4641 9.89735 11.6265 9.89995C10.7876 9.8981 9.97144 9.62735 9.29776 9.12745C8.73526 9.5962 8.17426 10.2675 7.71526 11.0947C6.64801 13.017 6.53026 14.9887 7.45276 15.5002C7.86376 15.7342 8.29726 15.5587 8.74426 15.1282C8.66058 15.592 8.61866 16.0624 8.61901 16.5337C8.61901 18.7372 9.47401 20.5177 10.5263 20.5177C11.1608 20.5177 11.475 19.869 11.6258 18.8767C11.7758 19.8622 12.0908 20.5177 12.7208 20.5177C13.7685 20.5177 14.6303 18.7365 14.6303 16.5337C14.6303 16.0387 14.5838 15.5662 14.5043 15.129C14.9543 15.5602 15.3863 15.7387 15.7988 15.5017L15.7995 15.5002ZM11.625 9.14995C12.0505 9.15631 12.4731 9.07797 12.868 8.91949C13.263 8.761 13.6225 8.52555 13.9256 8.22683C14.2287 7.92811 14.4694 7.57208 14.6336 7.17947C14.7978 6.78686 14.8823 6.36551 14.8822 5.93994C14.882 5.51436 14.7972 5.09307 14.6327 4.70058C14.4682 4.30808 14.2273 3.95223 13.924 3.65372C13.6207 3.3552 13.261 3.12 12.866 2.9618C12.4709 2.8036 12.0483 2.72555 11.6228 2.7322C10.7802 2.74538 9.97665 3.0894 9.38559 3.68999C8.79453 4.29058 8.46339 5.09954 8.46368 5.94219C8.46398 6.78484 8.79568 7.59357 9.38717 8.19374C9.97865 8.79391 10.7825 9.13737 11.625 9.14995Z" />
</svg>
